# xmcd
#
# Track frame offsets: 
#        150
#        32312
#        67996
#        94804
#        124949
#        155852
#        172321
#        195504
#        233489
#        252952
#        274468
#        296244
#        310581
#
# Disc length: 4652 seconds
#
# Revision: 1
# Processed by: cddbd v1.5.2PL0 Copyright (c) Steve Scherf et al.
# Submitted via: ExactAudioCopy v1.0b4
#
DISCID=bb122a0d
DTITLE=Various Artist - Beard, Bread and Bear's Prayers
DYEAR=2005
DGENRE=Psychedelic
TTITLE0=Albert Ayler - Truth Is Marching In
TTITLE1=Monoshock - Crypto-Zoological Disaster
TTITLE2=Colossal Yes - The Honey Creeper Smiles
TTITLE3=Ghost - Piper
TTITLE4=Six Organs Of Admittance - Close To The Sky
TTITLE5=Michael Yonkers - Swamp Of Love
TTITLE6=Shit-Spangled Banner - Cuntshine
TTITLE7=Brother JT - Country Blues - Be With Us (live)
TTITLE8=Joshua Burkett - Look Floating
TTITLE9=7 Year Rabbit Cycle - Meditation
TTITLE10=August Born - Providence
TTITLE11=Dark Inside The Sun - Truly Cursed
TTITLE12=Comets On Fire - Death Squad
EXTD=
EXTT0=
EXTT1=
EXTT2=
EXTT3=
EXTT4=
EXTT5=
EXTT6=
EXTT7=
EXTT8=
EXTT9=
EXTT10=
EXTT11=
EXTT12=
PLAYORDER=
